/* XPM */
static char *_dw_messagebox_error[] = {
/* columns rows colors chars-per-pixel */
"32 32 72 1",
"  c opaque",
". c #8b0000",
"X c #930000",
"o c #9b0000",
"O c #9c0a0a",
"+ c #a20000",
"@ c #a10b0b",
"# c #ab0000",
"$ c #aa0a0a",
"% c #ae1717",
"& c #b30000",
"* c #b70b0b",
"= c #bb0000",
"- c #b41414",
"; c #c40000",
": c #ca0000",
"> c #cd0909",
", c #ca1212",
"< c #d10000",
"1 c #d30b0b",
"2 c #dc0000",
"3 c #dd0909",
"4 c #c72929",
"5 c #cd2929",
"6 c #d62929",
"7 c #e40000",
"8 c #ec0303",
"9 c #ee1515",
"0 c #eb1f1f",
"q c #f20000",
"w c #fd0202",
"e c #f90808",
"r c #f51616",
"t c #f31818",
"y c #fe1111",
"u c #fe1c1c",
"i c #ec2b2b",
"p c #ed3f3f",
"a c #f52222",
"s c #f72c2c",
"d c #fd2222",
"f c #ff2828",
"g c #f23636",
"h c #f33c3c",
"j c #fe3333",
"k c #ff3f3f",
"l c #ec4444",
"z c #ff4545",
"x c #ff4a4a",
"c c #f75656",
"v c #f75c5c",
"b c #fe5555",
"n c #ff6767",
"m c #fc6b6b",
"M c #f57272",
"N c #fd7272",
"B c #fc7979",
"V c #ff8a8a",
"C c #fe9090",
"Z c #fd9c9c",
"A c #fea2a2",
"S c #feabab",
"D c #ffb1b1",
"F c #febcbc",
"G c #ffc4c4",
"H c #fecccc",
"J c #ffd4d4",
"K c #ffdbdb",
"L c #ffe1e1",
"P c #ffebeb",
"I c white",
"U c None",
/* pixels */
"UUUUUUUUUUUUUUUUUUUUUUUUUUUUUUUU",
"UUUUUUUUUUU;;;;;=====UUUUUUUUUUU",
"UUUUUUUU:::;;::::;;==&&&UUUUUUUU",
"UUUUUUU::;:20vBBBBMi<;&&&UUUUUUU",
"UUUUUU:::2cDPPPPPPPPHM1&&#UUUUUU",
"UUUUU::<iAKKKKKKKKKKKKHl=##UUUUU",
"UUUU::2hFHHHHHHHHHHHHHHHM;#+UUUU",
"UUU:::hFFFHFFFFFFFFFFHFFFM=++UUU",
"UU:::9ZSSHILSSSSSASSLIHSSSl#++UU",
"UU:;2NZZFIIIKZZCZZZKIIIFZZV1o+UU",
"UU::aVVZIIIIIJVVVVJIIIIIZVVc#oUU",
"U:;2bBBBHIIIIIHBBHIIIIIHNbsr:ooU",
"U;;8nnnnnGIIIIIGGIIIIISsq8qq7ooU",
"U;;rbbbbbbFIIIIIIIIIIZ8qqqqq8+XU",
"U;:dxzzzzzzFIIIIIIIIZ8qqqq8qq#XU",
"U;:tjjjjjjjjDIIIIIIZqqq8qqqqq#XU",
"U;:rddddddddSIIIIIIZ8qqqq8qqq#XU",
"U=:eeyyeyyeSIIIIIIIIZ8qq8wqqq#XU",
"U=;wewwwwwZIIIIIIIIIIZwqw8wqwX.U",
"U==8wwwwwZIIIIIZZIIIIIZwwwwq7X.U",
"U=&2wwwwZIIIIIZwwZIIIIIZwwww;..U",
"UU&=eeejIIIIIAeeeeZIIIIIjeeeo.UU",
"UU&&3yyynIIIAyyyyyySIIImyyy>..UU",
"UU&&&tduuNISuuuuuuuuSINuuu9X..UU",
"UUU&#*dfffbffffffffffbfffaO..UUU",
"UUUU##,sjjjjjjjjjjjjjjjjj-..UUUU",
"UUUUU##*gzkkkkkkzkkkkkzg@..UUUUU",
"UUUUUU#+#6xxxxxxxxxxxz5X..UUUUUU",
"UUUUUUU++o$5lbbbbbbl4O...UUUUUUU",
"UUUUUUUU+ooooO-%%%O.....UUUUUUUU",
"UUUUUUUUUUUooXXXXX...UUUUUUUUUUU",
"UUUUUUUUUUUUUUUUUUUUUUUUUUUUUUUU"
};
