/* XPM */
static char *_dw_messagebox_question[] = {
/* columns rows colors chars-per-pixel */
"32 32 96 2",
"   c opaque",
".  c #00008b",
"X  c #000093",
"o  c #00009b",
"O  c #0a0a9b",
"+  c #0000a3",
"@  c #0000ab",
"#  c #0a0aab",
"$  c #0000b3",
"%  c #0000bc",
"&  c #0000c3",
"*  c #0f0fc6",
"=  c #0000c9",
"-  c #0b0bcc",
";  c #0101d5",
":  c #0e0ed4",
">  c #0000da",
",  c #1111d5",
"<  c #1919d3",
"1  c #1d1ddc",
"2  c #2424c4",
"3  c #3e3ecf",
"4  c #2020d3",
"5  c #2323da",
"6  c #3030d5",
"7  c #3030db",
"8  c #3c3cde",
"9  c #0000e2",
"0  c #0d0de3",
"q  c #0202ea",
"w  c #1a1ae0",
"e  c #1919ec",
"r  c #0000f3",
"t  c #0a0af5",
"y  c #0000fc",
"u  c #0a0afe",
"i  c #1010f4",
"p  c #1414ff",
"a  c #1818ff",
"s  c #2020e5",
"d  c #2f2feb",
"f  c #3e3eeb",
"g  c #2020f4",
"h  c #2e2ef7",
"j  c #2020ff",
"k  c #2b2bfe",
"l  c #3030f4",
"z  c #3e3ef5",
"x  c #3535fe",
"c  c #3838f8",
"v  c #4b4bda",
"b  c #5252d4",
"n  c #5252da",
"m  c #4848eb",
"M  c #4545f6",
"N  c #4444ff",
"B  c #4d4dfe",
"V  c #5858f7",
"C  c #5252fd",
"Z  c #5858ff",
"A  c #6f6feb",
"S  c #6c6cf5",
"D  c #6363fd",
"F  c #6a6afe",
"G  c #7474fd",
"H  c #7b7bfe",
"J  c #8181d9",
"K  c #8383e4",
"L  c #8b8be8",
"P  c #9191eb",
"I  c #9c9ced",
"U  c #8282f5",
"Y  c #8080fc",
"T  c #8c8cfe",
"R  c #9d9df3",
"E  c #9292fd",
"W  c #9d9dfe",
"Q  c #a0a0ed",
"!  c #aeaeee",
"~  c #bdbdea",
"^  c #a3a3fc",
"/  c #acacfe",
"(  c #b4b4f1",
")  c #b5b5fb",
"_  c #bfbffc",
"`  c #cfcfed",
"'  c #c1c1f6",
"]  c #c1c1fe",
"[  c #ccccfe",
"{  c #d1d1fe",
"}  c #dbdbfe",
"|  c #e1e1ff",
" . c #eeeefc",
".. c #f1f1ff",
"X. c white",
"o. c None",
/* pixels */
"o.o.o.o.o.o.o.o.o.o.o.o.o.o.o.o.o.o.o.o.o.o.o.o.o.o.o.o.o.o.o.o.",
"o.o.o.o.o.o.o.o.o.o.o.o.= = & & % % % % o.o.o.o.o.o.o.o.o.o.o.o.",
"o.o.o.o.o.o.o.o.o.= = = & = % & & % % % $ % $ o.o.o.o.o.o.o.o.o.",
"o.o.o.o.o.o.o.o.= = = = ; 9 d z z f > ; & $ $ $ o.o.o.o.o.o.o.o.",
"o.o.o.o.o.o.= = = = 9 V ^ ............] G 1 $ $ @ $ o.o.o.o.o.o.",
"o.o.o.o.o.= = = > M ] | | { I L ! ! ( } | | F : @ @ @ o.o.o.o.o.",
"o.o.o.o.= = = 0 Y { { ) L ! X.X.X.X.X.~ ' { { / 5 @ + @ o.o.o.o.",
"o.o.o.o.= = 9 W ] ] R L X.X.X.X.X.X.X.X.X.} ] _ ) 5 + + o.o.o.o.",
"o.o.o.= = > F ) / ^ L X.X.X.X.X.X.X.X.X.X.X.] ) ) T - + + o.o.o.",
"o.o.= = = h W W W A X.X.X.X.} ^ W /  .X.X.X...W W W D + + o o.o.",
"o.o.= = 9 H T T T P X.X.X. .T T T T U  .X.X.X.E T T T , + o o.o.",
"o.o.= = h H H H H R X.X.X./ H H H H S ~ X.X.X.W H Z c t + o o.o.",
"o.= & ; B F F F F E X.X...G F F F F b X.X.X.X.l t q r r & o o o.",
"o.& = 9 B Z Z Z Z Z T / F Z Z Z Z v ` X.X.X._ r r r r r ; o X o.",
"o.& % q N N N N N N N N N N N N v  .X.X.X...e r r r q r 9 o X o.",
"o.& % t x x x x x x x x x x x 3  .X.X.X...l r r q r r r r X X o.",
"o.% % t j j j j j j j j j j 4  .X.X.X. .l r r r r r r r r X X o.",
"o.& % q p p u p p u p p p u J X.X.X.} l r r r r r r r r 9 X X o.",
"o.% % 9 y y y y y y y y y r ~ X.X.X.l y r r r y r r r r ; X . o.",
"o.% % ; y y y y y y y y y y ~ X.X.{ y y y y y y y y y y % . . o.",
"o.o.% % y y y y y y y y y y Q X.X.Y y y y y y y y y y y o X o.o.",
"o.o.$ $ 9 u u u u u u u u u a G F u u u u u u u u u u ; . . o.o.",
"o.o.$ $ % p p a p p p p p p < K A l a a p p p p p p p o . . o.o.",
"o.o.o.$ $ , j a j j j a a e ` X.X...h a a j j j j a * . . o.o.o.",
"o.o.o.o.@ @ w k k k k x k w X.X.X.X.Z k k k k k k < . . o.o.o.o.",
"o.o.o.o.@ @ @ 5 x x x x x l ..X.X.X.C x x x x x 4 . . . o.o.o.o.",
"o.o.o.o.o.@ + + < N N N N N F ] { H N N N N N 2 . . . o.o.o.o.o.",
"o.o.o.o.o.o.@ + + # 7 B C B B B B B B B B 6 O . . . o.o.o.o.o.o.",
"o.o.o.o.o.o.o.o.+ + o # 2 8 m Z Z m 8 2 O . . . o.o.o.o.o.o.o.o.",
"o.o.o.o.o.o.o.o.o.o o o o o X X X X . . . . . o.o.o.o.o.o.o.o.o.",
"o.o.o.o.o.o.o.o.o.o.o.o.o X X X X X . . o.o.o.o.o.o.o.o.o.o.o.o.",
"o.o.o.o.o.o.o.o.o.o.o.o.o.o.o.o.o.o.o.o.o.o.o.o.o.o.o.o.o.o.o.o."
};
