/* XPM */
static char * FILE_xpm[] = {
"16 16 16 1",
" 	c None",
".	c #000000",
"+	c #D5FFFF",
"@	c #F7F7F7",
"#	c #8092AA",
"$	c #646464",
"%	c #AADBFF",
"&	c #F0F0F0",
"*	c #E8E8E8",
"=	c #D5DBFF",
"-	c #5592AA",
";	c #E0E0E0",
">	c #2B92FF",
",	c #2B6DAA",
"'	c #556DAA",
")	c #55DBFF",
"                ",
"  #########-    ",
"  #@@@@@@@#)$   ",
"  #@@@@@@@>>,$  ",
"  #@@@@@@&==%-$ ",
"  #@@@@@@@+++=$ ",
"  #@@@@@@&+++=$ ",
"  #&&@*++%+++=$ ",
"  #&&&*++++++%$ ",
"  #**++%%%+++%$ ",
"  #**++++%%++%$ ",
"  -;;++%%%%%%%$ ",
"  -;+++++%%%%%$ ",
"  '###########$ ",
"   $$$$$$$$$$$$ ",
"                "};
