/* XPM */
static char * FOLDER_xpm[] = {
"16 16 10 1",
" 	c None",
".	c #000000",
"+	c #AA9200",
"@	c #FFFFAA",
"#	c #FFDB55",
"$	c #AA6D00",
"%	c #F7F7F7",
"&	c #D59255",
"*	c #FFDBAA",
"=	c #D5B655",
"                ",
"  &&&&          ",
" &%%%%&         ",
"&%@@@@%+++++$   ",
"&@@@@@@%%%%%$   ",
"&@*++++++++++++ ",
"&#+%%%%%%%%%*%+$",
"&#+@@@@@@@@@#@+$",
"&#+@@@@@@@@@.@+$",
"&#+@@**@**@@=@+$",
"&#+@########=@+$",
"&#+@########=@+$",
" ++++++++++++++$",
"  $$$$$$$$$$$$$ ",
"                ",
"                "};
