/* XPM */
static char *_dw_messagebox_warning[] = {
/* columns rows colors chars-per-pixel */
"32 32 134 2",
"   c opaque",
".  c #1a1a1a",
"X  c #212121",
"o  c #2b2b2b",
"O  c #323225",
"+  c #373737",
"@  c #3c3c31",
"#  c #4c1c00",
"$  c #572000",
"%  c #6d2800",
"&  c #742b00",
"*  c #46463c",
"=  c #6e6e16",
"-  c gray43",
";  c #797979",
":  c #823000",
">  c #8a3300",
",  c #943700",
"<  c #9e3b00",
"1  c #a63e00",
"2  c #a83e00",
"3  c #b34200",
"4  c #bb4500",
"5  c #c54900",
"6  c #cb4c00",
"7  c #d14d00",
"8  c #d35303",
"9  c #d35408",
"0  c #d55800",
"q  c #d85f00",
"w  c #d96400",
"e  c #da6b00",
"r  c #dd7100",
"t  c #dd7a00",
"y  c #e37b00",
"u  c #a9a91c",
"i  c #9a9a44",
"p  c #88886c",
"a  c #8b8b79",
"s  c #b5b54d",
"d  c #a7a776",
"f  c #e08500",
"g  c #e48b00",
"h  c #e98f01",
"j  c #e99002",
"k  c orange2",
"l  c #e9a100",
"z  c #eeac00",
"x  c #f2aa01",
"c  c #fcbf00",
"v  c #f9bf0d",
"b  c #f2c400",
"n  c #ffc700",
"m  c #f9cb06",
"M  c #f9cc0a",
"N  c #f4d303",
"B  c #f4d50c",
"V  c #f9dd00",
"C  c #fcda0c",
"Z  c #f5d610",
"A  c #fcdb13",
"S  c #ffd32e",
"D  c #ffd925",
"F  c #fced03",
"G  c #ffea0e",
"H  c #ffeb18",
"J  c #fff70d",
"K  c #fffe03",
"L  c #fffe0c",
"P  c #fff111",
"I  c #fff21e",
"U  c #fffe14",
"Y  c #fffe1c",
"T  c #e3e326",
"R  c #e4e43a",
"E  c #ffe236",
"W  c #ffe43f",
"Q  c #fffe22",
"!  c #fffe2a",
"~  c #fff73a",
"^  c #ffff32",
"/  c #ffff3a",
"(  c #ffde56",
")  c #ffde58",
"_  c #ffea43",
"`  c #ffec51",
"'  c #fff243",
"]  c #fffe43",
"[  c #ffff49",
"{  c #fff356",
"}  c #fffd54",
"|  c #ffff5b",
" . c #e9e978",
".. c #ffea7b",
"X. c #ffff63",
"o. c #fffe6c",
"O. c #f4f47c",
"+. c #ffff75",
"@. c #ffff7a",
"#. c #838383",
"$. c #8b8b8b",
"%. c #949494",
"&. c #9b9b93",
"*. c #989898",
"=. c #b8b898",
"-. c #b7b7a1",
";. c #dcdc9e",
":. c #c6c6b8",
">. c #c9c9b6",
",. c #d1d1a6",
"<. c #dcdcbc",
"1. c #fff28c",
"2. c #fffe81",
"3. c #fffe8b",
"4. c #fff292",
"5. c #fffd93",
"6. c #fffd9b",
"7. c #eeeea8",
"8. c #fff3ab",
"9. c #ffffa2",
"0. c #ffffad",
"q. c #ffffb4",
"w. c #fffebb",
"e. c #d9d9c6",
"r. c #e5e5c8",
"t. c #ebebc7",
"y. c #ededd4",
"u. c #fefcc3",
"i. c #fffdcb",
"p. c #ffffd2",
"a. c #ffffdf",
"s. c #ffffe0",
"d. c white",
"f. c None",
/* pixels */
"f.f.f.f.f.f.f.f.f.f.f.f.f.f.f.f.f.f.f.f.f.f.f.f.f.f.f.f.f.f.f.f.",
"f.f.f.f.f.f.f.f.f.f.f.f.f.f.6 5     f.f.f.f.f.f.f.f.f.f.f.f.f.f.",
"f.f.f.f.f.f.f.f.f.f.f.f.f.7 7 7 5     f.f.f.f.f.f.f.f.f.f.f.f.f.",
"f.f.f.f.f.f.f.f.f.f.f.f.6 6 y y 6 &     f.f.f.f.f.f.f.f.f.f.f.f.",
"f.f.f.f.f.f.f.f.f.f.f.f.6 0 c c 0 5     f.f.f.f.f.f.f.f.f.f.f.f.",
"f.f.f.f.f.f.f.f.f.f.f.7 7 k n n k 7 1     f.f.f.f.f.f.f.f.f.f.f.",
"f.f.f.f.f.f.f.f.f.f.f.6 w S i.i.S w 6     f.f.f.f.f.f.f.f.f.f.f.",
"f.f.f.f.f.f.f.f.f.f.7 7 x 8.s.s.8.x 7 3     f.f.f.f.f.f.f.f.f.f.",
"f.f.f.f.f.f.f.f.f.6 7 y ) a.a.s.a.) y 6 &     f.f.f.f.f.f.f.f.f.",
"f.f.f.f.f.f.f.f.f.7 0 v u.:.%.%.:.u.v 8 4     f.f.f.f.f.f.f.f.f.",
"f.f.f.f.f.f.f.f.6 6 h ..y.*.*.*.%.e...h 6 ,     f.f.f.f.f.f.f.f.",
"f.f.f.f.f.f.f.f.7 q D i.r.%.%.%.%.>.i.D w 6     f.f.f.f.f.f.f.f.",
"f.f.f.f.f.f.f.7 7 x 1.p.t.%.%.%.$.<.p.1.x 8 1     f.f.f.f.f.f.f.",
"f.f.f.f.f.f.7 7 e _ u.i.i.*.%.$.$.u.u.u.E r 6 #   f.f.f.f.f.f.f.",
"f.f.f.f.f.f.6 6 M 6.u.u.u.-.$.$.&.u.w.w.4.m 7 4     f.f.f.f.f.f.",
"f.f.f.f.f.6 7 h ` w.w.w.w.,.#.#.=.q.q.q.0._ h 6 %     f.f.f.f.f.",
"f.f.f.f.f.8 0 A 5.q.0.q.q.7.; ; ;.9.9.9.6.2.C 0 5     f.f.f.f.f.",
"f.f.f.f.6 6 z { 9.9.6.6.6.6.a - 6.6.6.5.3.3.' z 6 <     f.f.f.f.",
"f.f.f.f.7 e H 3.5.5.5.5.5.5.d p 3.3.3.@.@.@.o.G e 6     f.f.f.f.",
"f.f.f.7 7 b { @.3.@.3.@.3.@.O. .@.+.+.+.o.X.X.~ b 7 4     f.f.f.",
"f.f.7 7 f I o.o.o.o.o.o.o.o.o.o.X.X.X.| } } [ [ P g 6 #   f.f.f.",
"f.f.7 0 V ] } } | | | | | s * + i [ [ [ ] ] / / ! V 0 5     f.f.",
"f.6 7 l U ] ] ] [ ] [ [ [ @ o o o R / ^ ^ ! ! ! ! J l 6 ,     f.",
"f.7 w F ! ! ^ ^ ^ ^ ^ ^ ^ O X . . T ! Q Q Y Y Y U U F w 5     f.",
"7 7 b J Y Y Y Y Y Q Q Q Y u . . = U U U U L L L L K K b 6 2     ",
"6 y K L U U U U U Y U U U U U U U U L L L L K L K K K K y 6     ",
"7 f N B B B B Z Z Z Z B B B B B B N B N N B N N N N N N f 6     ",
"6 7 7 8 9 9 9 9 9 9 9 9 9 9 9 9 8 8 9 7 8 8 8 6 7 7 6 7 7 3     ",
"  & > > & > > & : : : : : : : : & > & > : : : : : : : : $       ",
"                                                                ",
"f.                                                            f.",
"f.f.f.f.f.f.f.f.f.f.f.f.f.f.f.f.f.f.f.f.f.f.f.f.f.f.f.f.f.f.f.f."
};
