/* XPM */
static char *_dw_messagebox_information[] = {
/* columns rows colors chars-per-pixel */
"32 32 5 1",
"  c opaque",
". c blue",
"X c gray60",
"o c white",
"O c None",
/* pixels */
"OOOOOOOOOOOXXXXXXXXOOOOOOOOOOOOO",
"OOOOOOOOXXXooooooooXXXOOOOOOOOOO",
"OOOOOOXXooooooooooooooXXOOOOOOOO",
"OOOOOXooooooooooooooooooXOOOOOOO",
"OOOOXoooooooo....oooooooo OOOOOO",
"OOOXoooooooo......oooooooo OOOOO",
"OOXooooooooo......ooooooooo OOOO",
"OXooooooooooo....ooooooooooo OOO",
"OXoooooooooooooooooooooooooo XOO",
"Xoooooooooooooooooooooooooooo  O",
"Xoooooooooo.......ooooooooooo  O",
"Xoooooooooooo.....ooooooooooo   ",
"Xoooooooooooo.....ooooooooooo   ",
"Xoooooooooooo.....ooooooooooo   ",
"Xoooooooooooo.....ooooooooooo   ",
"Xoooooooooooo.....ooooooooooo   ",
"OXooooooooooo.....oooooooooo    ",
"OXooooooooooo.....oooooooooo    ",
"OOXoooooooooo.....ooooooooo    O",
"OOO ooooooo.........oooooo     O",
"OOOO oooooooooooooooooooo     OO",
"OOOOO oooooooooooooooooo     OOO",
"OOOOOO  oooooooooooooo      OOOO",
"OOOOOOOX   oooooooo        OOOOO",
"OOOOOOOO      oooo        OOOOOO",
"OOOOOOOOOO     ooo      OOOOOOOO",
"OOOOOOOOOOOOO  ooo   OOOOOOOOOOO",
"OOOOOOOOOOOOOOO oo   OOOOOOOOOOO",
"OOOOOOOOOOOOOOOO o   OOOOOOOOOOO",
"OOOOOOOOOOOOOOOOO    OOOOOOOOOOO",
"OOOOOOOOOOOOOOOOOO   OOOOOOOOOOO",
"OOOOOOOOOOOOOOOOOOO  OOOOOOOOOOO"
};
